<?xml version="1.0" encoding="iso-8859-1"?>
<!-- Generator: Adobe Illustrator 18.0.0, SVG Export Plug-In . SVG Version: 6.00 Build 0)  -->
<!DOCTYPE svg PUBLIC "-//W3C//DTD SVG 1.1//EN" "http://www.w3.org/Graphics/SVG/1.1/DTD/svg11.dtd">
<svg version="1.1" id="Capa_1" xmlns="http://www.w3.org/2000/svg" xmlns:xlink="http://www.w3.org/1999/xlink" x="0px" y="0px"
	 viewBox="0 0 297 297" style="enable-background:new 0 0 297 297;" xml:space="preserve">
<g>
	<path d="M237.942,46.562c2.861,0,5.648-1.16,7.664-3.178c2.027-2.016,3.178-4.813,3.178-7.664c0-2.852-1.15-5.648-3.178-7.665
		c-2.016-2.017-4.813-3.177-7.664-3.177c-2.852,0-5.648,1.16-7.665,3.177c-2.018,2.017-3.177,4.813-3.177,7.665
		c0,2.852,1.159,5.648,3.177,7.664C232.294,45.401,235.091,46.562,237.942,46.562z"/>
	<path d="M59.058,118.115c2.852,0,5.648-1.16,7.664-3.177c2.017-2.017,3.178-4.813,3.178-7.665c0-2.851-1.161-5.648-3.178-7.665
		c-2.016-2.017-4.803-3.176-7.664-3.176c-2.851,0-5.648,1.159-7.665,3.176c-2.018,2.017-3.177,4.814-3.177,7.665
		c0,2.852,1.159,5.648,3.177,7.665C53.409,116.955,56.206,118.115,59.058,118.115z"/>
	<path d="M76.946,28.673c2.851,0,5.648-1.16,7.664-3.178c2.017-2.016,3.177-4.813,3.177-7.664c0-2.851-1.16-5.649-3.177-7.665
		c-2.016-2.017-4.813-3.177-7.664-3.177c-2.852,0-5.648,1.16-7.665,3.177c-2.018,2.017-3.177,4.814-3.177,7.665
		c0,2.851,1.159,5.648,3.177,7.664C71.298,27.513,74.095,28.673,76.946,28.673z"/>
	<path d="M220.054,118.115c2.862,0,5.648-1.16,7.664-3.177c2.028-2.017,3.178-4.813,3.178-7.665c0-2.851-1.149-5.648-3.178-7.665
		c-2.016-2.017-4.802-3.176-7.664-3.176c-2.851,0-5.648,1.159-7.665,3.176s-3.176,4.814-3.176,7.665
		c0,2.852,1.159,5.648,3.176,7.665S217.203,118.115,220.054,118.115z"/>
	<path d="M281.384,135.386c-2.016-2.018-4.814-3.177-7.664-3.177c-2.852,0-5.638,1.159-7.666,3.177
		c-2.017,2.017-3.176,4.814-3.176,7.665c0,2.851,1.159,5.648,3.176,7.664c2.028,2.017,4.814,3.177,7.666,3.177
		c2.851,0,5.648-1.16,7.664-3.177c2.027-2.016,3.177-4.813,3.177-7.664C284.56,140.199,283.411,137.402,281.384,135.386z"/>
	<path d="M34.122,196.716c0-2.851-1.149-5.648-3.177-7.665c-2.017-2.017-4.803-3.177-7.665-3.177c-2.851,0-5.649,1.16-7.665,3.177
		s-3.176,4.814-3.176,7.665c0,2.852,1.159,5.648,3.176,7.664c2.017,2.018,4.815,3.178,7.665,3.178c2.862,0,5.648-1.16,7.665-3.178
		C32.973,202.364,34.122,199.567,34.122,196.716z"/>
	<path d="M165.322,47.444c-4.972,2.847-10.709,4.48-16.819,4.48c-6.109,0-11.847-1.634-16.819-4.48l-32.041,74.764l77.489-47.209
		L165.322,47.444z"/>
	<path d="M148.503,34.578c9.323,0,16.909-7.756,16.909-17.289C165.412,7.757,157.826,0,148.503,0
		c-9.323,0-16.909,7.757-16.909,17.289C131.594,26.822,139.18,34.578,148.503,34.578z"/>
	<path d="M243.601,230.092L140.715,297h115.119c3.644,0,7.045-1.83,9.051-4.873c2.007-3.043,2.35-6.89,0.914-10.239L243.601,230.092
		z"/>
	<path d="M213.24,159.251L34.622,273.922l-3.415,7.966c-1.436,3.35-1.092,7.196,0.914,10.239c2.006,3.043,5.407,4.873,9.051,4.873
		h71.701l124.659-81.066L213.24,159.251z"/>
	<polygon points="183.172,89.092 89.334,146.26 45.285,249.039 207.178,145.106 	"/>
</g>
<g>
</g>
<g>
</g>
<g>
</g>
<g>
</g>
<g>
</g>
<g>
</g>
<g>
</g>
<g>
</g>
<g>
</g>
<g>
</g>
<g>
</g>
<g>
</g>
<g>
</g>
<g>
</g>
<g>
</g>
</svg>
